<svg viewBox="-1.82 -2.37 288.19 288.19" fill="none" xmlns="http://www.w3.org/2000/svg"><g filter="url(#filter0_f_7_2214)"><g filter="url(#filter1_df_7_2214)"><path d="M141 248C200.09 248 248 200.09 248 141C248 81.91 200.09 34 141 34C81.91 34 34 81.91 34 141C34 200.09 81.91 248 141 248Z" fill="#FA9E42"/></g><path d="M141 275C215.01 275 275 215.01 275 141C275 66.99 215.01 7 141 7C66.99 7 7 66.99 7 141C7 215.01 66.99 275 141 275Z" stroke="#FA9E42" stroke-width="10" stroke-linecap="round" stroke-dasharray="1 66"/><g filter="url(#filter2_f_7_2214)"><path d="M129.57 119.80C167.00 99.92 188.17 66.54 176.86 45.24C165.55 23.94 126.04 22.80 88.61 42.68C51.18 62.56 30.00 95.94 41.32 117.24C52.63 138.53 92.14 139.68 129.57 119.80Z" fill="#F8E36F"/></g></g><defs><filter id="filter0_f_7_2214" x="0" y="0" width="282" height="282" filterUnits="userSpaceOnUse" color-interpolation-filters="sRGB"><feFlood flood-opacity="0" result="BackgroundImageFix"/><feBlend mode="normal" in="SourceGraphic" in2="BackgroundImageFix" result="shape"/><feGaussianBlur stdDeviation="1" result="effect1_foregroundBlur_7_2214"/></filter><filter id="filter1_df_7_2214" x="14" y="6" width="274" height="274" filterUnits="userSpaceOnUse" color-interpolation-filters="sRGB"><feFlood flood-opacity="0" result="BackgroundImageFix"/><feColorMatrix in="SourceAlpha" type="matrix" values="0 0 0 0 0 0 0 0 0 0 0 0 0 0 0 0 0 0 127 0" result="hardAlpha"/><feOffset dx="10" dy="2"/><feGaussianBlur stdDeviation="15"/><feColorMatrix type="matrix" values="0 0 0 0 0 0 0 0 0 0 0 0 0 0 0 0 0 0 0.25 0"/><feBlend mode="normal" in2="BackgroundImageFix" result="effect1_dropShadow_7_2214"/><feBlend mode="normal" in="SourceGraphic" in2="effect1_dropShadow_7_2214" result="shape"/><feGaussianBlur stdDeviation="2" result="effect2_foregroundBlur_7_2214"/></filter><filter id="filter2_f_7_2214" x="18.27" y="8.49" width="181.64" height="145.50" filterUnits="userSpaceOnUse" color-interpolation-filters="sRGB"><feFlood flood-opacity="0" result="BackgroundImageFix"/><feBlend mode="normal" in="SourceGraphic" in2="BackgroundImageFix" result="shape"/><feGaussianBlur stdDeviation="10" result="effect1_foregroundBlur_7_2214"/></filter></defs></svg>