<svg viewBox="-2.90 -4.98 302.62 313.41" fill="none" xmlns="http://www.w3.org/2000/svg"><g filter="url(#filter0_df_7_2180)"><path d="M147.74 284.95C139.31 284.95 130.89 284.10 122.62 282.40C106.67 279.12 91.52 272.71 78.05 263.55C59.39 250.90 44.47 233.46 34.88 213.06C25.29 192.65 21.37 170.04 23.54 147.60C25.70 125.16 33.88 103.72 47.19 85.52C60.51 67.33 78.48 53.06 99.22 44.22C106.76 41.02 114.60 38.57 122.62 36.92C135.68 34.25 149.07 33.67 162.31 35.22C159.49 41.38 157.34 47.83 155.88 54.45C152.98 67.68 152.88 81.37 155.58 94.65C158.11 106.97 163.03 118.67 170.07 129.08C177.00 139.34 185.83 148.17 196.09 155.1C201.24 158.58 206.72 161.55 212.45 163.98C218.27 166.44 224.33 168.32 230.53 169.59C244.25 172.39 258.42 172.18 272.06 168.99C269.76 200.38 255.74 229.76 232.77 251.28C209.76 272.94 179.34 284.98 147.74 284.95Z" fill="#713FFD"/><g filter="url(#filter1_f_7_2180)"><path d="M125.81 142.43C153.79 117.23 162.50 81.29 145.27 62.15C128.03 43.00 91.37 47.91 63.39 73.10C35.41 98.30 26.70 134.24 43.93 153.39C61.17 172.53 97.83 167.62 125.81 142.43Z" fill="#A586FC"/></g></g><g filter="url(#filter2_f_7_2180)"><path d="M87.35 2L91.40 12.22L102.35 16L91.40 19.78L87.35 30L83.30 19.78L72.35 16L83.30 12.22L87.35 2Z" fill="url(#paint0_linear_7_2180)"/></g><g filter="url(#filter3_f_7_2180)"><path d="M273.35 242L276.86 250.4L286.35 253.5L276.86 256.6L273.35 265L269.84 256.6L260.35 253.5L269.84 250.4L273.35 242Z" fill="url(#paint1_linear_7_2180)"/></g><g filter="url(#filter4_f_7_2180)"><path d="M217.96 34.01L223.74 41.59L234.04 42.20L225.43 47.88L224.21 57.33L218.43 49.76L208.13 49.15L216.74 43.46L217.96 34.01Z" fill="url(#paint2_linear_7_2180)"/></g><g filter="url(#filter5_f_7_2180)"><path d="M11.74 223.40L17.97 229.27L27.67 228.31L20.23 234.61L20.13 243.17L13.89 237.3L4.20 238.27L11.63 231.96L11.74 223.40Z" fill="url(#paint3_linear_7_2180)"/></g><g filter="url(#filter6_f_7_2180)"><path d="M212.51 117.99L205.65 119.38L201.60 126.49L201.07 118.32L195.52 114.07L202.37 112.67L206.43 105.57L206.96 113.73L212.51 117.99Z" fill="url(#paint4_linear_7_2180)"/></g><defs><filter id="filter0_df_7_2180" x="2.96" y="6.37" width="309.11" height="310.58" filterUnits="userSpaceOnUse" color-interpolation-filters="sRGB"><feFlood flood-opacity="0" result="BackgroundImageFix"/><feColorMatrix in="SourceAlpha" type="matrix" values="0 0 0 0 0 0 0 0 0 0 0 0 0 0 0 0 0 0 127 0" result="hardAlpha"/><feOffset dx="10" dy="2"/><feGaussianBlur stdDeviation="15"/><feColorMatrix type="matrix" values="0 0 0 0 0 0 0 0 0 0 0 0 0 0 0 0 0 0 0.25 0"/><feBlend mode="normal" in2="BackgroundImageFix" result="effect1_dropShadow_7_2180"/><feBlend mode="normal" in="SourceGraphic" in2="effect1_dropShadow_7_2180" result="shape"/><feGaussianBlur stdDeviation="2" result="effect2_foregroundBlur_7_2180"/></filter><filter id="filter1_f_7_2180" x="15.08" y="30.47" width="159.03" height="154.60" filterUnits="userSpaceOnUse" color-interpolation-filters="sRGB"><feFlood flood-opacity="0" result="BackgroundImageFix"/><feBlend mode="normal" in="SourceGraphic" in2="BackgroundImageFix" result="shape"/><feGaussianBlur stdDeviation="10" result="effect1_foregroundBlur_7_2180"/></filter><filter id="filter2_f_7_2180" x="70.35" y="0" width="34" height="32" filterUnits="userSpaceOnUse" color-interpolation-filters="sRGB"><feFlood flood-opacity="0" result="BackgroundImageFix"/><feBlend mode="normal" in="SourceGraphic" in2="BackgroundImageFix" result="shape"/><feGaussianBlur stdDeviation="1" result="effect1_foregroundBlur_7_2180"/></filter><filter id="filter3_f_7_2180" x="258.35" y="240" width="30" height="27" filterUnits="userSpaceOnUse" color-interpolation-filters="sRGB"><feFlood flood-opacity="0" result="BackgroundImageFix"/><feBlend mode="normal" in="SourceGraphic" in2="BackgroundImageFix" result="shape"/><feGaussianBlur stdDeviation="1" result="effect1_foregroundBlur_7_2180"/></filter><filter id="filter4_f_7_2180" x="206.13" y="32.01" width="29.91" height="27.32" filterUnits="userSpaceOnUse" color-interpolation-filters="sRGB"><feFlood flood-opacity="0" result="BackgroundImageFix"/><feBlend mode="normal" in="SourceGraphic" in2="BackgroundImageFix" result="shape"/><feGaussianBlur stdDeviation="1" result="effect1_foregroundBlur_7_2180"/></filter><filter id="filter5_f_7_2180" x="2.20" y="221.40" width="27.47" height="23.77" filterUnits="userSpaceOnUse" color-interpolation-filters="sRGB"><feFlood flood-opacity="0" result="BackgroundImageFix"/><feBlend mode="normal" in="SourceGraphic" in2="BackgroundImageFix" result="shape"/><feGaussianBlur stdDeviation="1" result="effect1_foregroundBlur_7_2180"/></filter><filter id="filter6_f_7_2180" x="193.52" y="103.57" width="20.99" height="24.91" filterUnits="userSpaceOnUse" color-interpolation-filters="sRGB"><feFlood flood-opacity="0" result="BackgroundImageFix"/><feBlend mode="normal" in="SourceGraphic" in2="BackgroundImageFix" result="shape"/><feGaussianBlur stdDeviation="1" result="effect1_foregroundBlur_7_2180"/></filter><linearGradient id="paint0_linear_7_2180" x1="87.35" y1="2" x2="87.35" y2="30" gradientUnits="userSpaceOnUse"><stop stop-color="#6B38FC"/><stop offset="1" stop-color="#9F7EFD"/></linearGradient><linearGradient id="paint1_linear_7_2180" x1="273.35" y1="242" x2="273.35" y2="265" gradientUnits="userSpaceOnUse"><stop stop-color="#6B38FC"/><stop offset="1" stop-color="#9F7EFD"/></linearGradient><linearGradient id="paint2_linear_7_2180" x1="217.96" y1="34.01" x2="224.21" y2="57.33" gradientUnits="userSpaceOnUse"><stop stop-color="#6B38FC"/><stop offset="1" stop-color="#9F7EFD"/></linearGradient><linearGradient id="paint3_linear_7_2180" x1="11.73" y1="223.40" x2="20.13" y2="243.17" gradientUnits="userSpaceOnUse"><stop stop-color="#6B38FC"/><stop offset="1" stop-color="#9F7EFD"/></linearGradient><linearGradient id="paint4_linear_7_2180" x1="212.51" y1="117.99" x2="195.52" y2="114.07" gradientUnits="userSpaceOnUse"><stop stop-color="#6B38FC"/><stop offset="1" stop-color="#9F7EFD"/></linearGradient></defs></svg>