<svg viewBox="-4.32 -4.75 269.63 189.63" fill="none" xmlns="http://www.w3.org/2000/svg"><g filter="url(#filter0_f_7_2146)"><path d="M12 69.62C12 69.62 22.16 78.77 30.09 78.47C40.05 78.08 41.75 70.11 50.97 69.62C60.62 69.72 61.61 77.99 72.07 78.47C81.44 78.35 85.42 69.77 94.35 69.62C103.28 69.47 112.80 78.47 112.80 78.47" stroke="#78849A" stroke-width="16" stroke-linecap="round"/></g><g filter="url(#filter1_f_7_2146)"><path d="M52 24.64C52 24.64 66.7 37.88 78.19 37.44C92.59 36.88 95.06 25.34 108.41 24.64C122.38 24.78 123.81 36.74 138.95 37.44C152.52 37.28 158.26 24.86 171.20 24.64C184.13 24.43 197.92 37.44 197.92 37.44" stroke="#78849A" stroke-width="16" stroke-linecap="round"/></g><g filter="url(#filter2_f_7_2146)"><path d="M103 110.64C103 110.64 117.7 123.88 129.19 123.44C143.59 122.88 146.06 111.34 159.41 110.64C173.38 110.78 174.81 122.75 189.95 123.44C203.52 123.28 209.26 110.86 222.20 110.64C235.13 110.43 248.92 123.44 248.92 123.44" stroke="#78849A" stroke-width="16" stroke-linecap="round"/></g><g filter="url(#filter3_f_7_2146)"><path d="M19 155.65C19 155.65 33.7 168.88 45.19 168.44C59.59 167.88 62.06 156.34 75.41 155.65C89.38 155.78 90.81 167.75 105.95 168.44C119.52 168.28 125.27 155.86 138.20 155.65C151.13 155.43 164.92 168.44 164.92 168.44" stroke="#78849A" stroke-width="16" stroke-linecap="round"/></g><g filter="url(#filter4_f_7_2146)"><path d="M169.69 71L162.69 78" stroke="#A2AEBD" stroke-width="4" stroke-linecap="round"/><path d="M162.69 71L169.69 78" stroke="#A2AEBD" stroke-width="4" stroke-linecap="round"/><path d="M226.71 152L221.69 157.02" stroke="#42A0F0" stroke-width="4" stroke-linecap="round"/><path d="M221.69 152L226.71 157.02" stroke="#42A0F0" stroke-width="4" stroke-linecap="round"/><path d="M11.71 127L6.69 132.02" stroke="#713FFD" stroke-width="4" stroke-linecap="round"/><path d="M6.69 127L11.71 132.02" stroke="#713FFD" stroke-width="4" stroke-linecap="round"/><path d="M23.71 4L18.69 9.02" stroke="#42A0F0" stroke-width="4" stroke-linecap="round"/><path d="M18.69 4L23.71 9.02" stroke="#42A0F0" stroke-width="4" stroke-linecap="round"/><path d="M217.71 9L212.69 14.02" stroke="#713FFD" stroke-width="4" stroke-linecap="round"/><path d="M212.69 9L217.71 14.02" stroke="#713FFD" stroke-width="4" stroke-linecap="round"/></g><defs><filter id="filter0_f_7_2146" x="0" y="57.62" width="124.80" height="32.85" filterUnits="userSpaceOnUse" color-interpolation-filters="sRGB"><feFlood flood-opacity="0" result="BackgroundImageFix"/><feBlend mode="normal" in="SourceGraphic" in2="BackgroundImageFix" result="shape"/><feGaussianBlur stdDeviation="2" result="effect1_foregroundBlur_7_2146"/></filter><filter id="filter1_f_7_2146" x="40" y="12.64" width="169.92" height="36.81" filterUnits="userSpaceOnUse" color-interpolation-filters="sRGB"><feFlood flood-opacity="0" result="BackgroundImageFix"/><feBlend mode="normal" in="SourceGraphic" in2="BackgroundImageFix" result="shape"/><feGaussianBlur stdDeviation="2" result="effect1_foregroundBlur_7_2146"/></filter><filter id="filter2_f_7_2146" x="91" y="98.64" width="169.92" height="36.81" filterUnits="userSpaceOnUse" color-interpolation-filters="sRGB"><feFlood flood-opacity="0" result="BackgroundImageFix"/><feBlend mode="normal" in="SourceGraphic" in2="BackgroundImageFix" result="shape"/><feGaussianBlur stdDeviation="2" result="effect1_foregroundBlur_7_2146"/></filter><filter id="filter3_f_7_2146" x="7" y="143.64" width="169.92" height="36.81" filterUnits="userSpaceOnUse" color-interpolation-filters="sRGB"><feFlood flood-opacity="0" result="BackgroundImageFix"/><feBlend mode="normal" in="SourceGraphic" in2="BackgroundImageFix" result="shape"/><feGaussianBlur stdDeviation="2" result="effect1_foregroundBlur_7_2146"/></filter><filter id="filter4_f_7_2146" x="2.69" y="0" width="228.02" height="161.02" filterUnits="userSpaceOnUse" color-interpolation-filters="sRGB"><feFlood flood-opacity="0" result="BackgroundImageFix"/><feBlend mode="normal" in="SourceGraphic" in2="BackgroundImageFix" result="shape"/><feGaussianBlur stdDeviation="1" result="effect1_foregroundBlur_7_2146"/></filter></defs></svg>