<svg viewBox="-0.53 -20.64 229.06 229.06" fill="none" xmlns="http://www.w3.org/2000/svg"><g filter="url(#filter0_f_7_2220)"><path d="M98.5 184L82 42H115L98.5 184Z" fill="#42A0F0"/><path d="M95.68 92.67C98.70 92.30 99.86 81.56 98.28 68.68C96.70 55.80 92.97 45.65 89.95 46.02C86.94 46.39 85.78 57.14 87.36 70.02C88.94 82.90 92.67 93.04 95.68 92.67Z" fill="white"/></g><g filter="url(#filter1_f_7_2220)"><path d="M148.5 100L132 42L165 42L148.5 100Z" fill="#42A0F0"/><path d="M146.98 72.63C149.17 72.36 150.16 65.69 149.18 57.75C148.20 49.80 145.64 43.57 143.44 43.84C141.25 44.11 140.26 50.77 141.24 58.72C142.22 66.67 144.78 72.89 146.98 72.63Z" fill="white"/></g><g filter="url(#filter2_f_7_2220)"><path d="M178.5 82L167 42H190L178.5 82Z" fill="#42A0F0"/><path d="M177.35 63.15C178.86 62.97 179.54 58.37 178.87 52.88C178.19 47.39 176.42 43.09 174.91 43.27C173.39 43.46 172.71 48.06 173.38 53.55C174.06 59.04 175.83 63.34 177.35 63.15Z" fill="white"/></g><g filter="url(#filter3_f_7_2220)"><path d="M59 113L36 42H82L59 113Z" fill="#42A0F0"/><path d="M56.60 77.42C59.54 76.63 59.95 68.64 57.51 59.57C55.08 50.50 50.73 43.79 47.80 44.57C44.86 45.36 44.46 53.35 46.89 62.42C49.32 71.49 53.67 78.20 56.60 77.42Z" fill="white"/></g><g filter="url(#filter4_f_7_2220)"><path d="M58.46 145C59.14 145.01 66.00 155.72 66.00 159.88C66.00 161.88 65.21 163.80 63.79 165.21C62.38 166.62 60.46 167.42 58.46 167.42C56.47 167.42 54.55 166.62 53.13 165.21C51.72 163.80 50.93 161.88 50.93 159.88C50.93 155.72 57.79 144.99 58.46 145Z" fill="#42A0F0"/><path d="M52.36 161.48C53.12 161.71 54.07 160.76 54.50 159.37C54.93 157.97 54.66 156.65 53.91 156.42C53.16 156.19 52.20 157.13 51.77 158.53C51.35 159.93 51.61 161.25 52.36 161.48Z" fill="white"/></g><g filter="url(#filter5_f_7_2220)"><path d="M148.56 110C149.07 110.01 154.20 118.02 154.20 121.13C154.20 122.62 153.60 124.06 152.55 125.11C151.49 126.17 150.06 126.76 148.56 126.76C147.07 126.76 145.63 126.17 144.58 125.11C143.52 124.06 142.93 122.62 142.93 121.13C142.93 118.02 148.06 110.00 148.56 110Z" fill="#42A0F0"/><path d="M144.26 123.23C144.83 123.41 145.54 122.70 145.86 121.65C146.18 120.61 145.99 119.62 145.42 119.45C144.86 119.27 144.14 119.98 143.82 121.03C143.50 122.07 143.70 123.06 144.26 123.23Z" fill="white"/></g><g filter="url(#filter6_f_7_2220)"><path d="M204 4H24C12.95 4 4 12.95 4 24C4 35.05 12.95 44 24 44H204C215.05 44 224 35.05 224 24C224 12.95 215.05 4 204 4Z" fill="url(#paint0_linear_7_2220)"/><g filter="url(#filter7_df_7_2220)"><path d="M194.5 16H34.5C30.36 16 27 19.36 27 23.5C27 27.64 30.36 31 34.5 31H194.5C198.64 31 202 27.64 202 23.5C202 19.36 198.64 16 194.5 16Z" fill="white"/></g></g><defs><filter id="filter0_f_7_2220" x="78" y="38" width="41" height="150" filterUnits="userSpaceOnUse" color-interpolation-filters="sRGB"><feFlood flood-opacity="0" result="BackgroundImageFix"/><feBlend mode="normal" in="SourceGraphic" in2="BackgroundImageFix" result="shape"/><feGaussianBlur stdDeviation="2" result="effect1_foregroundBlur_7_2220"/></filter><filter id="filter1_f_7_2220" x="128" y="38" width="41" height="66" filterUnits="userSpaceOnUse" color-interpolation-filters="sRGB"><feFlood flood-opacity="0" result="BackgroundImageFix"/><feBlend mode="normal" in="SourceGraphic" in2="BackgroundImageFix" result="shape"/><feGaussianBlur stdDeviation="2" result="effect1_foregroundBlur_7_2220"/></filter><filter id="filter2_f_7_2220" x="163" y="38" width="31" height="48" filterUnits="userSpaceOnUse" color-interpolation-filters="sRGB"><feFlood flood-opacity="0" result="BackgroundImageFix"/><feBlend mode="normal" in="SourceGraphic" in2="BackgroundImageFix" result="shape"/><feGaussianBlur stdDeviation="2" result="effect1_foregroundBlur_7_2220"/></filter><filter id="filter3_f_7_2220" x="32" y="38" width="54" height="79" filterUnits="userSpaceOnUse" color-interpolation-filters="sRGB"><feFlood flood-opacity="0" result="BackgroundImageFix"/><feBlend mode="normal" in="SourceGraphic" in2="BackgroundImageFix" result="shape"/><feGaussianBlur stdDeviation="2" result="effect1_foregroundBlur_7_2220"/></filter><filter id="filter4_f_7_2220" x="48.93" y="143" width="19.07" height="26.42" filterUnits="userSpaceOnUse" color-interpolation-filters="sRGB"><feFlood flood-opacity="0" result="BackgroundImageFix"/><feBlend mode="normal" in="SourceGraphic" in2="BackgroundImageFix" result="shape"/><feGaussianBlur stdDeviation="1" result="effect1_foregroundBlur_7_2220"/></filter><filter id="filter5_f_7_2220" x="140.93" y="108" width="15.27" height="20.76" filterUnits="userSpaceOnUse" color-interpolation-filters="sRGB"><feFlood flood-opacity="0" result="BackgroundImageFix"/><feBlend mode="normal" in="SourceGraphic" in2="BackgroundImageFix" result="shape"/><feGaussianBlur stdDeviation="1" result="effect1_foregroundBlur_7_2220"/></filter><filter id="filter6_f_7_2220" x="0" y="0" width="228" height="48" filterUnits="userSpaceOnUse" color-interpolation-filters="sRGB"><feFlood flood-opacity="0" result="BackgroundImageFix"/><feBlend mode="normal" in="SourceGraphic" in2="BackgroundImageFix" result="shape"/><feGaussianBlur stdDeviation="2" result="effect1_foregroundBlur_7_2220"/></filter><filter id="filter7_df_7_2220" x="23" y="12" width="183" height="27" filterUnits="userSpaceOnUse" color-interpolation-filters="sRGB"><feFlood flood-opacity="0" result="BackgroundImageFix"/><feColorMatrix in="SourceAlpha" type="matrix" values="0 0 0 0 0 0 0 0 0 0 0 0 0 0 0 0 0 0 127 0" result="hardAlpha"/><feOffset dy="4"/><feGaussianBlur stdDeviation="2"/><feColorMatrix type="matrix" values="0 0 0 0 0 0 0 0 0 0 0 0 0 0 0 0 0 0 0.25 0"/><feBlend mode="normal" in2="BackgroundImageFix" result="effect1_dropShadow_7_2220"/><feBlend mode="normal" in="SourceGraphic" in2="effect1_dropShadow_7_2220" result="shape"/><feGaussianBlur stdDeviation="2" result="effect2_foregroundBlur_7_2220"/></filter><linearGradient id="paint0_linear_7_2220" x1="13.46" y1="4" x2="24.04" y2="71.80" gradientUnits="userSpaceOnUse"><stop stop-color="#42A0F0"/><stop offset="1" stop-color="#42A0F0" stop-opacity="0.60"/></linearGradient></defs></svg>