<svg viewBox="6.56 -40.05 372.21 372.21" fill="none" xmlns="http://www.w3.org/2000/svg"><g filter="url(#filter0_f_7_1587)"><path d="M120.93 212.95C114.64 212.95 108.36 212.31 102.20 211.05C90.31 208.60 79.01 203.82 68.97 197.00C55.06 187.57 43.94 174.56 36.79 159.35C29.64 144.14 26.72 127.28 28.33 110.55C29.95 93.82 36.04 77.83 45.97 64.27C55.90 50.71 69.30 40.07 84.76 33.48C90.38 31.09 96.22 29.27 102.20 28.04C111.94 26.04 121.92 25.62 131.79 26.77C129.69 31.36 128.08 36.17 127.00 41.10C125.88 46.19 125.32 51.39 125.32 56.60C125.30 70.91 129.57 84.89 137.58 96.75C142.75 104.39 149.33 110.97 156.97 116.14C160.82 118.73 164.90 120.95 169.17 122.76C178.01 126.50 187.52 128.42 197.12 128.40C202.68 128.41 208.21 127.77 213.62 126.50C212.35 144.07 206.12 160.92 195.66 175.10C192.28 179.69 188.48 183.96 184.33 187.86C167.17 204.00 144.49 212.98 120.93 212.95Z" fill="#713FFD"/></g><g filter="url(#filter1_f_7_1587)"><path d="M104.58 106.69C125.44 87.91 131.94 61.11 119.08 46.84C106.23 32.57 78.90 36.23 58.04 55.01C37.18 73.80 30.69 100.59 43.54 114.86C56.39 129.14 83.72 125.48 104.58 106.69Z" fill="#A586FC"/></g><g filter="url(#filter2_f_7_1587)"><path d="M75.77 2L78.87 9.66L87.27 12.5L78.87 15.34L75.77 23L72.67 15.34L64.27 12.5L72.67 9.66L75.77 2Z" fill="url(#paint0_linear_7_1587)"/><g filter="url(#filter3_f_7_1587)"><path d="M214.77 181L217.33 187.2L224.27 189.5L217.33 191.8L214.77 198L212.20 191.8L205.27 189.5L212.20 187.2L214.77 181Z" fill="url(#paint1_linear_7_1587)"/></g><path d="M173.28 25.87L177.59 31.51L185.27 31.97L178.85 36.21L177.94 43.25L173.63 37.61L165.95 37.15L172.37 32.91L173.28 25.87Z" fill="url(#paint2_linear_7_1587)"/><path d="M19.53 167.06L24.18 171.44L31.41 170.72L25.87 175.42L25.79 181.80L21.14 177.42L13.91 178.15L19.45 173.44L19.53 167.06Z" fill="url(#paint3_linear_7_1587)"/><path d="M169.21 88.48L164.10 89.51L161.08 94.81L160.69 88.72L156.55 85.55L161.66 84.51L164.68 79.22L165.08 85.30L169.21 88.48Z" fill="url(#paint4_linear_7_1587)"/></g><g filter="url(#filter4_df_7_1587)"><g filter="url(#filter5_d_7_1587)"><path d="M235.56 285.76C233.63 285.92 231.68 286.00 229.71 286H92.18C82.71 286.04 73.33 284.20 64.58 280.60C55.82 277.00 47.86 271.71 41.16 265.03C34.45 258.35 29.13 250.41 25.50 241.67C21.87 232.93 20 223.55 20 214.09C20 204.62 21.87 195.25 25.50 186.51C29.13 177.76 34.45 169.82 41.16 163.14C47.86 156.46 55.82 151.17 64.58 147.57C73.33 143.97 82.71 142.14 92.18 142.18H143.46C160.08 105.6 198.37 80 242.94 80C302.77 80 351.27 126.11 351.27 183C351.27 239.88 302.77 286 242.94 286C240.46 286 238.00 285.92 235.56 285.76Z" fill="url(#paint5_linear_7_1587)"/><path d="M242.94 285C250.23 285 257.51 284.30 264.58 282.93C271.48 281.58 278.25 279.58 284.73 276.98C291.10 274.42 297.23 271.25 302.97 267.57C308.65 263.92 314.00 259.73 318.85 255.11C323.71 250.49 328.12 245.41 331.95 240.01C335.83 234.56 339.15 228.73 341.84 222.69C344.58 216.53 346.68 210.09 348.09 203.55C349.54 196.83 350.27 189.92 350.27 183C350.27 176.08 349.54 169.17 348.09 162.45C346.68 155.91 344.58 149.47 341.84 143.31C339.15 137.27 335.83 131.44 331.95 125.99C328.12 120.59 323.71 115.51 318.85 110.89C314.00 106.28 308.65 102.08 302.97 98.43C297.23 94.75 291.10 91.58 284.73 89.02C278.25 86.42 271.48 84.42 264.58 83.07C257.51 81.70 250.23 81 242.94 81C221.57 81 200.93 86.95 183.25 98.21C174.73 103.64 167.08 110.19 160.50 117.69C153.88 125.23 148.45 133.61 144.37 142.59L144.10 143.18H143.46H92.18C82.61 143.18 73.32 145.05 64.58 148.75C60.38 150.52 56.33 152.72 52.53 155.28C48.78 157.82 45.25 160.74 42.04 163.94C38.83 167.15 35.92 170.69 33.38 174.44C30.82 178.23 28.62 182.28 26.84 186.49C23.14 195.23 21.27 204.51 21.27 214.09C21.27 223.66 23.14 232.95 26.84 241.69C28.62 245.89 30.82 249.94 33.38 253.74C35.92 257.49 38.83 261.02 42.04 264.23C45.25 267.44 48.78 270.35 52.53 272.89C56.33 275.45 60.38 277.65 64.58 279.43C73.32 283.12 82.61 285 92.18 285H229.71C231.63 285 233.57 284.92 235.48 284.77L235.56 284.76L235.63 284.77C238.05 284.92 240.51 285 242.94 285ZM242.94 286C240.46 286 238.00 285.92 235.56 285.76C233.63 285.92 231.68 286 229.71 286H92.18C52.47 286 20.27 253.80 20.27 214.09C20.27 174.37 52.47 142.18 92.18 142.18H143.46C160.08 105.59 198.37 80 242.94 80C302.77 80 351.27 126.11 351.27 183C351.27 239.88 302.77 286 242.94 286Z" fill="white" fill-opacity="0.5"/></g></g><defs><filter id="filter0_f_7_1587" x="23.90" y="22.14" width="193.72" height="194.81" filterUnits="userSpaceOnUse" color-interpolation-filters="sRGB"><feFlood flood-opacity="0" result="BackgroundImageFix"/><feBlend mode="normal" in="SourceGraphic" in2="BackgroundImageFix" result="shape"/><feGaussianBlur stdDeviation="2" result="effect1_foregroundBlur_7_1587"/></filter><filter id="filter1_f_7_1587" x="16.94" y="18.14" width="128.74" height="125.44" filterUnits="userSpaceOnUse" color-interpolation-filters="sRGB"><feFlood flood-opacity="0" result="BackgroundImageFix"/><feBlend mode="normal" in="SourceGraphic" in2="BackgroundImageFix" result="shape"/><feGaussianBlur stdDeviation="10" result="effect1_foregroundBlur_7_1587"/></filter><filter id="filter2_f_7_1587" x="11.91" y="0" width="214.36" height="200" filterUnits="userSpaceOnUse" color-interpolation-filters="sRGB"><feFlood flood-opacity="0" result="BackgroundImageFix"/><feBlend mode="normal" in="SourceGraphic" in2="BackgroundImageFix" result="shape"/><feGaussianBlur stdDeviation="1" result="effect1_foregroundBlur_7_1587"/></filter><filter id="filter3_f_7_1587" x="203.27" y="179" width="23" height="21" filterUnits="userSpaceOnUse" color-interpolation-filters="sRGB"><feFlood flood-opacity="0" result="BackgroundImageFix"/><feBlend mode="normal" in="SourceGraphic" in2="BackgroundImageFix" result="shape"/><feGaussianBlur stdDeviation="1" result="effect1_foregroundBlur_7_1587"/></filter><filter id="filter4_df_7_1587" x="0" y="52" width="391.27" height="266" filterUnits="userSpaceOnUse" color-interpolation-filters="sRGB"><feFlood flood-opacity="0" result="BackgroundImageFix"/><feColorMatrix in="SourceAlpha" type="matrix" values="0 0 0 0 0 0 0 0 0 0 0 0 0 0 0 0 0 0 127 0" result="hardAlpha"/><feOffset dx="10" dy="2"/><feGaussianBlur stdDeviation="15"/><feColorMatrix type="matrix" values="0 0 0 0 0.26 0 0 0 0 0.63 0 0 0 0 0.94 0 0 0 0.60 0"/><feBlend mode="normal" in2="BackgroundImageFix" result="effect1_dropShadow_7_1587"/><feBlend mode="normal" in="SourceGraphic" in2="effect1_dropShadow_7_1587" result="shape"/><feGaussianBlur stdDeviation="2" result="effect2_foregroundBlur_7_1587"/></filter><filter id="filter5_d_7_1587" x="0" y="52" width="391.27" height="266" filterUnits="userSpaceOnUse" color-interpolation-filters="sRGB"><feFlood flood-opacity="0" result="BackgroundImageFix"/><feColorMatrix in="SourceAlpha" type="matrix" values="0 0 0 0 0 0 0 0 0 0 0 0 0 0 0 0 0 0 127 0" result="hardAlpha"/><feOffset dx="10" dy="2"/><feGaussianBlur stdDeviation="15"/><feColorMatrix type="matrix" values="0 0 0 0 0.50 0 0 0 0 0.50 0 0 0 0 0.50 0 0 0 0.30 0"/><feBlend mode="normal" in2="BackgroundImageFix" result="effect1_dropShadow_7_1587"/><feBlend mode="normal" in="SourceGraphic" in2="effect1_dropShadow_7_1587" result="shape"/></filter><linearGradient id="paint0_linear_7_1587" x1="75.77" y1="2" x2="75.77" y2="23" gradientUnits="userSpaceOnUse"><stop stop-color="#6B38FC"/><stop offset="1" stop-color="#9F7EFD"/></linearGradient><linearGradient id="paint1_linear_7_1587" x1="214.77" y1="181" x2="214.77" y2="198" gradientUnits="userSpaceOnUse"><stop stop-color="#6B38FC"/><stop offset="1" stop-color="#9F7EFD"/></linearGradient><linearGradient id="paint2_linear_7_1587" x1="173.28" y1="25.87" x2="177.94" y2="43.25" gradientUnits="userSpaceOnUse"><stop stop-color="#6B38FC"/><stop offset="1" stop-color="#9F7EFD"/></linearGradient><linearGradient id="paint3_linear_7_1587" x1="19.53" y1="167.06" x2="25.79" y2="181.80" gradientUnits="userSpaceOnUse"><stop stop-color="#6B38FC"/><stop offset="1" stop-color="#9F7EFD"/></linearGradient><linearGradient id="paint4_linear_7_1587" x1="169.21" y1="88.48" x2="156.55" y2="85.55" gradientUnits="userSpaceOnUse"><stop stop-color="#6B38FC"/><stop offset="1" stop-color="#9F7EFD"/></linearGradient><linearGradient id="paint5_linear_7_1587" x1="154.16" y1="105.96" x2="220.21" y2="297.17" gradientUnits="userSpaceOnUse"><stop stop-color="white" stop-opacity="0.60"/><stop offset="1" stop-color="#F7F7F7" stop-opacity="0.20"/></linearGradient></defs></svg>