<svg viewBox="-7.83 -3.91 407.00 312.44" fill="none" xmlns="http://www.w3.org/2000/svg"><g filter="url(#filter0_f_7_1602)"><path d="M108.27 196.06C153.00 196.06 189.27 159.79 189.27 115.06C189.27 70.32 153.00 34.06 108.27 34.06C63.53 34.06 27.27 70.32 27.27 115.06C27.27 159.79 63.53 196.06 108.27 196.06Z" fill="#FA9E42"/></g><g filter="url(#filter1_f_7_1602)"><path d="M108.27 215.06C163.50 215.06 208.27 170.29 208.27 115.06C208.27 59.83 163.50 15.06 108.27 15.06C53.04 15.06 8.27 59.83 8.27 115.06C8.27 170.29 53.04 215.06 108.27 215.06Z" stroke="#FA9E42" stroke-width="10" stroke-linecap="round" stroke-dasharray="1 66"/></g><g filter="url(#filter2_f_7_1602)"><path d="M99.67 99.00C127.95 83.98 143.95 58.75 135.41 42.66C126.86 26.57 97.00 25.70 68.72 40.72C40.43 55.75 24.43 80.97 32.98 97.06C41.53 113.16 71.38 114.03 99.67 99.00Z" fill="#F8E36F"/></g><g filter="url(#filter3_df_7_1602)"><g filter="url(#filter4_d_7_1602)"><path d="M235.56 268.82C233.63 268.98 231.68 269.06 229.71 269.06H92.18C82.71 269.09 73.33 267.26 64.58 263.66C55.82 260.06 47.86 254.77 41.16 248.09C34.45 241.41 29.13 233.47 25.50 224.73C21.87 215.99 20 206.61 20 197.15C20 187.68 21.87 178.31 25.50 169.56C29.13 160.82 34.45 152.88 41.16 146.20C47.86 139.52 55.82 134.23 64.58 130.63C73.33 127.03 82.71 125.20 92.18 125.23H143.46C160.08 88.66 198.37 63.06 242.94 63.06C302.77 63.06 351.27 109.17 351.27 166.06C351.27 222.94 302.77 269.06 242.94 269.06C240.46 269.06 238.00 268.98 235.56 268.82Z" fill="url(#paint0_linear_7_1602)"/><path d="M242.94 268.06C250.23 268.06 257.51 267.36 264.58 265.98C271.48 264.64 278.25 262.64 284.73 260.04C291.10 257.48 297.23 254.31 302.97 250.63C308.65 246.98 314.00 242.78 318.85 238.17C323.71 233.55 328.12 228.47 331.95 223.07C335.83 217.62 339.15 211.79 341.84 205.74C344.58 199.59 346.68 193.15 348.09 186.61C349.54 179.89 350.27 172.98 350.27 166.06C350.27 159.14 349.54 152.23 348.09 145.51C346.68 138.97 344.58 132.53 341.84 126.37C339.15 120.33 335.83 114.50 331.95 109.05C328.12 103.65 323.71 98.57 318.85 93.95C314.00 89.33 308.65 85.14 302.97 81.49C297.23 77.80 291.10 74.64 284.73 72.08C278.25 69.48 271.48 67.47 264.58 66.13C257.51 64.76 250.23 64.06 242.94 64.06C221.57 64.06 200.93 70.01 183.25 81.27C174.73 86.70 167.08 93.25 160.50 100.75C153.88 108.29 148.45 116.67 144.37 125.65L144.10 126.23H143.46H92.18C82.61 126.23 73.32 128.11 64.58 131.81C60.38 133.58 56.33 135.78 52.53 138.34C48.78 140.88 45.25 143.79 42.04 147.00C38.83 150.21 35.92 153.74 33.38 157.50C30.82 161.29 28.62 165.34 26.84 169.54C23.14 178.29 21.27 187.57 21.27 197.15C21.27 206.72 23.14 216.01 26.84 224.75C28.62 228.95 30.82 233.00 33.38 236.79C35.92 240.55 38.83 244.08 42.04 247.29C45.25 250.50 48.78 253.41 52.53 255.95C56.33 258.51 60.38 260.71 64.58 262.49C73.32 266.18 82.61 268.06 92.18 268.06H229.71C231.63 268.06 233.57 267.98 235.48 267.83L235.56 267.82L235.63 267.83C238.05 267.98 240.51 268.06 242.94 268.06ZM242.94 269.06C240.46 269.06 238.00 268.98 235.56 268.82C233.63 268.98 231.68 269.06 229.71 269.06H92.18C52.47 269.06 20.27 236.86 20.27 197.15C20.27 157.43 52.47 125.23 92.18 125.23H143.46C160.08 88.65 198.37 63.06 242.94 63.06C302.77 63.06 351.27 109.17 351.27 166.06C351.27 222.94 302.77 269.06 242.94 269.06Z" fill="white" fill-opacity="0.49"/></g></g><defs><filter id="filter0_f_7_1602" x="23.27" y="30.06" width="170" height="170" filterUnits="userSpaceOnUse" color-interpolation-filters="sRGB"><feFlood flood-opacity="0" result="BackgroundImageFix"/><feBlend mode="normal" in="SourceGraphic" in2="BackgroundImageFix" result="shape"/><feGaussianBlur stdDeviation="2" result="effect1_foregroundBlur_7_1602"/></filter><filter id="filter1_f_7_1602" x="1.27" y="8.06" width="214" height="214" filterUnits="userSpaceOnUse" color-interpolation-filters="sRGB"><feFlood flood-opacity="0" result="BackgroundImageFix"/><feBlend mode="normal" in="SourceGraphic" in2="BackgroundImageFix" result="shape"/><feGaussianBlur stdDeviation="1" result="effect1_foregroundBlur_7_1602"/></filter><filter id="filter2_f_7_1602" x="0.68" y="0" width="167.03" height="139.73" filterUnits="userSpaceOnUse" color-interpolation-filters="sRGB"><feFlood flood-opacity="0" result="BackgroundImageFix"/><feBlend mode="normal" in="SourceGraphic" in2="BackgroundImageFix" result="shape"/><feGaussianBlur stdDeviation="15" result="effect1_foregroundBlur_7_1602"/></filter><filter id="filter3_df_7_1602" x="0" y="35.06" width="391.27" height="266" filterUnits="userSpaceOnUse" color-interpolation-filters="sRGB"><feFlood flood-opacity="0" result="BackgroundImageFix"/><feColorMatrix in="SourceAlpha" type="matrix" values="0 0 0 0 0 0 0 0 0 0 0 0 0 0 0 0 0 0 127 0" result="hardAlpha"/><feOffset dx="10" dy="2"/><feGaussianBlur stdDeviation="15"/><feColorMatrix type="matrix" values="0 0 0 0 0.26 0 0 0 0 0.63 0 0 0 0 0.94 0 0 0 0.60 0"/><feBlend mode="normal" in2="BackgroundImageFix" result="effect1_dropShadow_7_1602"/><feBlend mode="normal" in="SourceGraphic" in2="effect1_dropShadow_7_1602" result="shape"/><feGaussianBlur stdDeviation="2" result="effect2_foregroundBlur_7_1602"/></filter><filter id="filter4_d_7_1602" x="0" y="35.06" width="391.27" height="266" filterUnits="userSpaceOnUse" color-interpolation-filters="sRGB"><feFlood flood-opacity="0" result="BackgroundImageFix"/><feColorMatrix in="SourceAlpha" type="matrix" values="0 0 0 0 0 0 0 0 0 0 0 0 0 0 0 0 0 0 127 0" result="hardAlpha"/><feOffset dx="10" dy="2"/><feGaussianBlur stdDeviation="15"/><feColorMatrix type="matrix" values="0 0 0 0 0.50 0 0 0 0 0.50 0 0 0 0 0.50 0 0 0 0.30 0"/><feBlend mode="normal" in2="BackgroundImageFix" result="effect1_dropShadow_7_1602"/><feBlend mode="normal" in="SourceGraphic" in2="effect1_dropShadow_7_1602" result="shape"/></filter><linearGradient id="paint0_linear_7_1602" x1="154.16" y1="89.01" x2="220.21" y2="280.23" gradientUnits="userSpaceOnUse"><stop stop-color="white" stop-opacity="0.56"/><stop offset="1" stop-color="#F7F7F7" stop-opacity="0.20"/></linearGradient></defs></svg>