<svg viewBox="30.55 13.54 347.75 347.75" fill="none" xmlns="http://www.w3.org/2000/svg"><path d="M138.86 148.29V157.14" stroke="#42A0F0" stroke-linecap="round"/><path d="M138.67 150.45L140.11 149.73" stroke="#42A0F0" stroke-linecap="round"/><path d="M138.67 150.45L136.51 149.73" stroke="#42A0F0" stroke-linecap="round"/><path d="M138.67 155.49L140.11 156.21" stroke="#42A0F0" stroke-linecap="round"/><path d="M138.67 155.49L136.51 156.21" stroke="#42A0F0" stroke-linecap="round"/><path d="M142.67 150.54L135.01 154.97" stroke="#42A0F0" stroke-linecap="round"/><path d="M140.79 151.61L142.91 152.14" stroke="#42A0F0" stroke-linecap="round"/><path d="M140.79 151.61L141.37 149.46" stroke="#42A0F0" stroke-linecap="round"/><path d="M136.70 153.97L136.10 156.08" stroke="#42A0F0" stroke-linecap="round"/><path d="M136.70 153.97L134.56 153.39" stroke="#42A0F0" stroke-linecap="round"/><path d="M142.63 154.97L134.97 150.54" stroke="#42A0F0" stroke-linecap="round"/><path d="M140.77 153.87L141.37 155.98" stroke="#42A0F0" stroke-linecap="round"/><path d="M140.77 153.87L142.91 153.29" stroke="#42A0F0" stroke-linecap="round"/><path d="M136.68 151.51L134.56 152.04" stroke="#42A0F0" stroke-linecap="round"/><path d="M136.68 151.51L136.10 149.36" stroke="#42A0F0" stroke-linecap="round"/><path d="M260.94 167.88V183.05" stroke="#42A0F0" stroke-linecap="round"/><path d="M260.30 171.33L263.18 170.61" stroke="#42A0F0" stroke-linecap="round"/><path d="M260.30 171.33L256.70 170.61" stroke="#42A0F0" stroke-linecap="round"/><path d="M260.30 179.96L263.18 181.40" stroke="#42A0F0" stroke-linecap="round"/><path d="M260.30 179.96L256.70 181.40" stroke="#42A0F0" stroke-linecap="round"/><path d="M267.47 171.74L254.33 179.32" stroke="#42A0F0" stroke-linecap="round"/><path d="M264.24 173.57L267.88 174.48" stroke="#42A0F0" stroke-linecap="round"/><path d="M264.24 173.57L265.23 169.88" stroke="#42A0F0" stroke-linecap="round"/><path d="M257.23 177.61L256.20 181.22" stroke="#42A0F0" stroke-linecap="round"/><path d="M257.23 177.61L253.55 176.62" stroke="#42A0F0" stroke-linecap="round"/><path d="M267.39 179.32L254.26 171.74" stroke="#42A0F0" stroke-linecap="round"/><path d="M264.20 177.44L265.23 181.05" stroke="#42A0F0" stroke-linecap="round"/><path d="M264.20 177.44L267.88 176.46" stroke="#42A0F0" stroke-linecap="round"/><path d="M257.19 173.40L253.55 174.31" stroke="#42A0F0" stroke-linecap="round"/><path d="M257.19 173.40L256.20 169.72" stroke="#42A0F0" stroke-linecap="round"/><path d="M349.59 191.44V203.89" stroke="#42A0F0" stroke-linecap="round"/><path d="M348.94 194.16L351.10 193.44" stroke="#42A0F0" stroke-linecap="round"/><path d="M348.94 194.16L346.07 193.44" stroke="#42A0F0" stroke-linecap="round"/><path d="M348.94 201.36L351.10 202.80" stroke="#42A0F0" stroke-linecap="round"/><path d="M348.94 201.36L346.07 202.80" stroke="#42A0F0" stroke-linecap="round"/><path d="M354.95 194.60L344.17 200.83" stroke="#42A0F0" stroke-linecap="round"/><path d="M352.30 196.10L355.29 196.85" stroke="#42A0F0" stroke-linecap="round"/><path d="M352.30 196.10L353.11 193.08" stroke="#42A0F0" stroke-linecap="round"/><path d="M346.55 199.43L345.71 202.39" stroke="#42A0F0" stroke-linecap="round"/><path d="M346.55 199.43L343.53 198.61" stroke="#42A0F0" stroke-linecap="round"/><path d="M354.89 200.83L344.11 194.60" stroke="#42A0F0" stroke-linecap="round"/><path d="M352.27 199.29L353.11 202.25" stroke="#42A0F0" stroke-linecap="round"/><path d="M352.27 199.29L355.29 198.48" stroke="#42A0F0" stroke-linecap="round"/><path d="M346.52 195.97L343.53 196.72" stroke="#42A0F0" stroke-linecap="round"/><path d="M346.52 195.97L345.71 192.94" stroke="#42A0F0" stroke-linecap="round"/><path d="M43.33 244.23V255.20" stroke="#42A0F0" stroke-linecap="round"/><path d="M42.75 246.95L44.91 246.23" stroke="#42A0F0" stroke-linecap="round"/><path d="M42.75 246.95L40.59 246.23" stroke="#42A0F0" stroke-linecap="round"/><path d="M42.75 252.71L44.91 254.14" stroke="#42A0F0" stroke-linecap="round"/><path d="M42.75 252.71L40.59 254.14" stroke="#42A0F0" stroke-linecap="round"/><path d="M48.06 247.01L38.56 252.5" stroke="#42A0F0" stroke-linecap="round"/><path d="M45.72 248.34L48.36 249.00" stroke="#42A0F0" stroke-linecap="round"/><path d="M45.72 248.34L46.44 245.67" stroke="#42A0F0" stroke-linecap="round"/><path d="M40.66 251.26L39.91 253.87" stroke="#42A0F0" stroke-linecap="round"/><path d="M40.66 251.26L37.99 250.55" stroke="#42A0F0" stroke-linecap="round"/><path d="M48.00 252.50L38.50 247.01" stroke="#42A0F0" stroke-linecap="round"/><path d="M45.69 251.14L46.44 253.75" stroke="#42A0F0" stroke-linecap="round"/><path d="M45.69 251.14L48.36 250.43" stroke="#42A0F0" stroke-linecap="round"/><path d="M40.63 248.21L37.99 248.88" stroke="#42A0F0" stroke-linecap="round"/><path d="M40.63 248.21L39.91 245.55" stroke="#42A0F0" stroke-linecap="round"/><path d="M198.94 286.17V295.06" stroke="#42A0F0" stroke-linecap="round"/><path d="M198.73 288.17L200.16 287.45" stroke="#42A0F0" stroke-linecap="round"/><path d="M198.72 288.17L196.57 287.45" stroke="#42A0F0" stroke-linecap="round"/><path d="M198.73 293.20L200.16 293.93" stroke="#42A0F0" stroke-linecap="round"/><path d="M198.72 293.20L196.57 293.93" stroke="#42A0F0" stroke-linecap="round"/><path d="M202.77 288.43L195.07 292.88" stroke="#42A0F0" stroke-linecap="round"/><path d="M200.88 289.50L203.02 290.04" stroke="#42A0F0" stroke-linecap="round"/><path d="M200.88 289.50L201.46 287.34" stroke="#42A0F0" stroke-linecap="round"/><path d="M196.77 291.87L196.17 293.99" stroke="#42A0F0" stroke-linecap="round"/><path d="M196.77 291.87L194.61 291.29" stroke="#42A0F0" stroke-linecap="round"/><path d="M202.73 292.88L195.03 288.43" stroke="#42A0F0" stroke-linecap="round"/><path d="M200.86 291.77L201.46 293.89" stroke="#42A0F0" stroke-linecap="round"/><path d="M200.86 291.77L203.02 291.19" stroke="#42A0F0" stroke-linecap="round"/><path d="M196.75 289.4L194.61 289.94" stroke="#42A0F0" stroke-linecap="round"/><path d="M196.75 289.4L196.17 287.24" stroke="#42A0F0" stroke-linecap="round"/><g filter="url(#filter0_f_7_1639)"><path d="M281.98 263.00V339.80" stroke="#42A0F0" stroke-width="6" stroke-linecap="round"/><path d="M281.82 281.77L295.05 268.12" stroke="#42A0F0" stroke-width="6" stroke-linecap="round"/><path d="M281.82 281.77L268.17 268.12" stroke="#42A0F0" stroke-width="6" stroke-linecap="round"/><path d="M281.82 322.73L295.05 336.38" stroke="#42A0F0" stroke-width="6" stroke-linecap="round"/><path d="M281.82 322.73L268.17 336.38" stroke="#42A0F0" stroke-width="6" stroke-linecap="round"/><path d="M315.04 282.52L248.54 320.92" stroke="#42A0F0" stroke-width="6" stroke-linecap="round"/><path d="M298.71 291.77L317.15 296.40" stroke="#42A0F0" stroke-width="6" stroke-linecap="round"/><path d="M298.71 291.77L303.71 273.12" stroke="#42A0F0" stroke-width="6" stroke-linecap="round"/><path d="M263.24 312.25L258.03 330.53" stroke="#42A0F0" stroke-width="6" stroke-linecap="round"/><path d="M263.24 312.25L244.59 307.25" stroke="#42A0F0" stroke-width="6" stroke-linecap="round"/><path d="M314.68 320.92L248.17 282.52" stroke="#42A0F0" stroke-width="6" stroke-linecap="round"/><path d="M298.50 311.39L303.71 329.67" stroke="#42A0F0" stroke-width="6" stroke-linecap="round"/><path d="M298.50 311.39L317.15 306.40" stroke="#42A0F0" stroke-width="6" stroke-linecap="round"/><path d="M263.03 290.92L244.59 295.55" stroke="#42A0F0" stroke-width="6" stroke-linecap="round"/><path d="M263.03 290.92L258.03 272.27" stroke="#42A0F0" stroke-width="6" stroke-linecap="round"/><path d="M194.98 175.00V251.79" stroke="#42A0F0" stroke-width="6" stroke-linecap="round"/><path d="M194.82 193.77L208.05 180.12" stroke="#42A0F0" stroke-width="6" stroke-linecap="round"/><path d="M194.82 193.77L181.17 180.12" stroke="#42A0F0" stroke-width="6" stroke-linecap="round"/><path d="M194.82 234.73L208.05 248.38" stroke="#42A0F0" stroke-width="6" stroke-linecap="round"/><path d="M194.82 234.73L181.17 248.38" stroke="#42A0F0" stroke-width="6" stroke-linecap="round"/><path d="M228.04 194.52L161.54 232.91" stroke="#42A0F0" stroke-width="6" stroke-linecap="round"/><path d="M211.71 203.77L230.15 208.40" stroke="#42A0F0" stroke-width="6" stroke-linecap="round"/><path d="M211.71 203.77L216.71 185.12" stroke="#42A0F0" stroke-width="6" stroke-linecap="round"/><path d="M176.24 224.25L171.03 242.53" stroke="#42A0F0" stroke-width="6" stroke-linecap="round"/><path d="M176.24 224.25L157.59 219.25" stroke="#42A0F0" stroke-width="6" stroke-linecap="round"/><path d="M227.68 232.91L161.17 194.52" stroke="#42A0F0" stroke-width="6" stroke-linecap="round"/><path d="M211.50 223.40L216.71 241.67" stroke="#42A0F0" stroke-width="6" stroke-linecap="round"/><path d="M211.50 223.40L230.15 218.40" stroke="#42A0F0" stroke-width="6" stroke-linecap="round"/><path d="M176.03 202.92L157.59 207.54" stroke="#42A0F0" stroke-width="6" stroke-linecap="round"/><path d="M176.03 202.92L171.03 184.27" stroke="#42A0F0" stroke-width="6" stroke-linecap="round"/><path d="M125.98 263.00V339.80" stroke="#42A0F0" stroke-width="6" stroke-linecap="round"/><path d="M125.82 281.77L139.05 268.12" stroke="#42A0F0" stroke-width="6" stroke-linecap="round"/><path d="M125.82 281.77L112.17 268.12" stroke="#42A0F0" stroke-width="6" stroke-linecap="round"/><path d="M125.82 322.73L139.05 336.38" stroke="#42A0F0" stroke-width="6" stroke-linecap="round"/><path d="M125.82 322.73L112.17 336.38" stroke="#42A0F0" stroke-width="6" stroke-linecap="round"/><path d="M159.04 282.52L92.54 320.92" stroke="#42A0F0" stroke-width="6" stroke-linecap="round"/><path d="M142.71 291.77L161.15 296.40" stroke="#42A0F0" stroke-width="6" stroke-linecap="round"/><path d="M142.71 291.77L147.71 273.12" stroke="#42A0F0" stroke-width="6" stroke-linecap="round"/><path d="M107.24 312.25L102.03 330.53" stroke="#42A0F0" stroke-width="6" stroke-linecap="round"/><path d="M107.24 312.25L88.59 307.25" stroke="#42A0F0" stroke-width="6" stroke-linecap="round"/><path d="M158.68 320.92L92.17 282.52" stroke="#42A0F0" stroke-width="6" stroke-linecap="round"/><path d="M142.50 311.39L147.71 329.67" stroke="#42A0F0" stroke-width="6" stroke-linecap="round"/><path d="M142.50 311.39L161.15 306.40" stroke="#42A0F0" stroke-width="6" stroke-linecap="round"/><path d="M107.03 290.92L88.59 295.55" stroke="#42A0F0" stroke-width="6" stroke-linecap="round"/><path d="M107.03 290.92L102.03 272.27" stroke="#42A0F0" stroke-width="6" stroke-linecap="round"/></g><g filter="url(#filter1_df_7_1639)"><g filter="url(#filter2_d_7_1639)"><path d="M235.56 233.76C233.63 233.92 231.68 234.00 229.71 234H92.18C82.71 234.03 73.33 232.20 64.58 228.60C55.82 225.00 47.86 219.71 41.16 213.03C34.45 206.35 29.13 198.41 25.50 189.67C21.87 180.93 20 171.55 20 162.09C20 152.62 21.87 143.25 25.50 134.51C29.13 125.76 34.45 117.82 41.16 111.14C47.86 104.46 55.82 99.17 64.58 95.57C73.33 91.97 82.71 90.14 92.18 90.17H143.46C160.08 53.6 198.37 28 242.94 28C302.77 28 351.27 74.11 351.27 131C351.27 187.88 302.77 234 242.94 234C240.46 234 238.00 233.92 235.56 233.76Z" fill="url(#paint0_linear_7_1639)"/><path d="M242.94 233C250.23 233 257.51 232.30 264.58 230.93C271.48 229.59 278.25 227.58 284.73 224.98C291.10 222.42 297.23 219.25 302.97 215.57C308.65 211.92 314.00 207.72 318.85 203.11C323.71 198.49 328.12 193.41 331.95 188.01C335.83 182.56 339.15 176.73 341.84 170.69C344.58 164.53 346.68 158.09 348.09 151.55C349.54 144.83 350.27 137.92 350.27 131C350.27 124.08 349.54 117.17 348.09 110.45C346.68 103.91 344.58 97.47 341.84 91.31C339.15 85.27 335.83 79.44 331.95 73.99C328.12 68.59 323.71 63.51 318.85 58.89C314.00 54.28 308.65 50.08 302.97 46.43C297.23 42.75 291.10 39.58 284.73 37.02C278.25 34.42 271.48 32.42 264.58 31.07C257.51 29.70 250.23 29 242.94 29C221.57 29 200.93 34.95 183.25 46.21C174.73 51.64 167.08 58.19 160.50 65.69C153.88 73.23 148.45 81.61 144.37 90.59L144.10 91.17H143.46H92.18C82.61 91.17 73.32 93.05 64.58 96.75C60.38 98.52 56.33 100.72 52.53 103.28C48.78 105.82 45.25 108.73 42.04 111.94C38.83 115.15 35.92 118.69 33.38 122.44C30.82 126.23 28.62 130.28 26.84 134.49C23.14 143.23 21.27 152.51 21.27 162.09C21.27 171.66 23.14 180.95 26.84 189.69C28.62 193.89 30.82 197.94 33.38 201.74C35.92 205.49 38.83 209.02 42.04 212.23C45.25 215.44 48.78 218.35 52.53 220.89C56.33 223.45 60.38 225.65 64.58 227.43C73.32 231.12 82.61 233 92.18 233H229.71C231.63 233 233.57 232.92 235.48 232.77L235.56 232.76L235.63 232.77C238.05 232.92 240.51 233 242.94 233ZM242.94 234C240.46 234 238.00 233.92 235.56 233.76C233.63 233.92 231.68 234 229.71 234H92.18C52.47 234 20.27 201.80 20.27 162.09C20.27 122.37 52.47 90.17 92.18 90.17H143.46C160.08 53.60 198.37 28 242.94 28C302.77 28 351.27 74.12 351.27 131C351.27 187.88 302.77 234 242.94 234Z" fill="white" fill-opacity="0.5"/></g></g><defs><filter id="filter0_f_7_1639" x="81.59" y="168.00" width="242.56" height="178.79" filterUnits="userSpaceOnUse" color-interpolation-filters="sRGB"><feFlood flood-opacity="0" result="BackgroundImageFix"/><feBlend mode="normal" in="SourceGraphic" in2="BackgroundImageFix" result="shape"/><feGaussianBlur stdDeviation="2" result="effect1_foregroundBlur_7_1639"/></filter><filter id="filter1_df_7_1639" x="0" y="0" width="391.27" height="266" filterUnits="userSpaceOnUse" color-interpolation-filters="sRGB"><feFlood flood-opacity="0" result="BackgroundImageFix"/><feColorMatrix in="SourceAlpha" type="matrix" values="0 0 0 0 0 0 0 0 0 0 0 0 0 0 0 0 0 0 127 0" result="hardAlpha"/><feOffset dx="10" dy="2"/><feGaussianBlur stdDeviation="15"/><feColorMatrix type="matrix" values="0 0 0 0 0.26 0 0 0 0 0.63 0 0 0 0 0.94 0 0 0 0.60 0"/><feBlend mode="normal" in2="BackgroundImageFix" result="effect1_dropShadow_7_1639"/><feBlend mode="normal" in="SourceGraphic" in2="effect1_dropShadow_7_1639" result="shape"/><feGaussianBlur stdDeviation="2" result="effect2_foregroundBlur_7_1639"/></filter><filter id="filter2_d_7_1639" x="0" y="0" width="391.27" height="266" filterUnits="userSpaceOnUse" color-interpolation-filters="sRGB"><feFlood flood-opacity="0" result="BackgroundImageFix"/><feColorMatrix in="SourceAlpha" type="matrix" values="0 0 0 0 0 0 0 0 0 0 0 0 0 0 0 0 0 0 127 0" result="hardAlpha"/><feOffset dx="10" dy="2"/><feGaussianBlur stdDeviation="15"/><feColorMatrix type="matrix" values="0 0 0 0 0.50 0 0 0 0 0.50 0 0 0 0 0.50 0 0 0 0.30 0"/><feBlend mode="normal" in2="BackgroundImageFix" result="effect1_dropShadow_7_1639"/><feBlend mode="normal" in="SourceGraphic" in2="effect1_dropShadow_7_1639" result="shape"/></filter><linearGradient id="paint0_linear_7_1639" x1="154.16" y1="53.96" x2="220.21" y2="245.17" gradientUnits="userSpaceOnUse"><stop stop-color="white" stop-opacity="0.60"/><stop offset="1" stop-color="#F7F7F7" stop-opacity="0.20"/></linearGradient></defs></svg>