<svg viewBox="33.35 3.43 344.90 344.90" fill="none" xmlns="http://www.w3.org/2000/svg"><g filter="url(#filter0_f_7_1847)"><path d="M186.43 174.20V303.75" stroke="#42A0F0" stroke-width="10" stroke-linecap="round"/><path d="M186.17 205.87L208.48 182.84" stroke="#42A0F0" stroke-width="10" stroke-linecap="round"/><path d="M186.17 205.87L163.14 182.84" stroke="#42A0F0" stroke-width="10" stroke-linecap="round"/><path d="M186.17 274.96L208.48 297.99" stroke="#42A0F0" stroke-width="10" stroke-linecap="round"/><path d="M186.17 274.96L163.14 297.99" stroke="#42A0F0" stroke-width="10" stroke-linecap="round"/><path d="M242.22 207.13L130.03 271.9" stroke="#42A0F0" stroke-width="10" stroke-linecap="round"/><path d="M214.66 222.73L245.76 230.54" stroke="#42A0F0" stroke-width="10" stroke-linecap="round"/><path d="M214.66 222.73L223.09 191.28" stroke="#42A0F0" stroke-width="10" stroke-linecap="round"/><path d="M154.83 257.28L146.04 288.12" stroke="#42A0F0" stroke-width="10" stroke-linecap="round"/><path d="M154.83 257.28L123.37 248.85" stroke="#42A0F0" stroke-width="10" stroke-linecap="round"/><path d="M241.60 271.9L129.41 207.13" stroke="#42A0F0" stroke-width="10" stroke-linecap="round"/><path d="M214.31 255.84L223.09 286.68" stroke="#42A0F0" stroke-width="10" stroke-linecap="round"/><path d="M214.31 255.84L245.76 247.41" stroke="#42A0F0" stroke-width="10" stroke-linecap="round"/><path d="M154.47 221.29L123.37 229.10" stroke="#42A0F0" stroke-width="10" stroke-linecap="round"/><path d="M154.47 221.30L146.04 189.84" stroke="#42A0F0" stroke-width="10" stroke-linecap="round"/></g><path d="M138.86 148.29V157.14" stroke="#42A0F0" stroke-linecap="round"/><path d="M138.67 150.45L140.11 149.73" stroke="#42A0F0" stroke-linecap="round"/><path d="M138.67 150.45L136.51 149.73" stroke="#42A0F0" stroke-linecap="round"/><path d="M138.67 155.49L140.11 156.21" stroke="#42A0F0" stroke-linecap="round"/><path d="M138.67 155.49L136.51 156.21" stroke="#42A0F0" stroke-linecap="round"/><path d="M142.68 150.54L135.01 154.97" stroke="#42A0F0" stroke-linecap="round"/><path d="M140.79 151.61L142.92 152.14" stroke="#42A0F0" stroke-linecap="round"/><path d="M140.79 151.61L141.37 149.46" stroke="#42A0F0" stroke-linecap="round"/><path d="M136.71 153.97L136.10 156.08" stroke="#42A0F0" stroke-linecap="round"/><path d="M136.71 153.97L134.56 153.39" stroke="#42A0F0" stroke-linecap="round"/><path d="M142.63 154.97L134.97 150.54" stroke="#42A0F0" stroke-linecap="round"/><path d="M140.77 153.87L141.37 155.98" stroke="#42A0F0" stroke-linecap="round"/><path d="M140.77 153.87L142.92 153.29" stroke="#42A0F0" stroke-linecap="round"/><path d="M136.68 151.51L134.56 152.04" stroke="#42A0F0" stroke-linecap="round"/><path d="M136.68 151.51L136.10 149.36" stroke="#42A0F0" stroke-linecap="round"/><path d="M260.94 167.88V183.05" stroke="#42A0F0" stroke-linecap="round"/><path d="M260.30 171.33L263.18 170.61" stroke="#42A0F0" stroke-linecap="round"/><path d="M260.30 171.33L256.70 170.61" stroke="#42A0F0" stroke-linecap="round"/><path d="M260.30 179.96L263.18 181.40" stroke="#42A0F0" stroke-linecap="round"/><path d="M260.30 179.96L256.70 181.40" stroke="#42A0F0" stroke-linecap="round"/><path d="M267.47 171.74L254.33 179.32" stroke="#42A0F0" stroke-linecap="round"/><path d="M264.24 173.57L267.88 174.48" stroke="#42A0F0" stroke-linecap="round"/><path d="M264.24 173.57L265.23 169.88" stroke="#42A0F0" stroke-linecap="round"/><path d="M257.23 177.61L256.20 181.22" stroke="#42A0F0" stroke-linecap="round"/><path d="M257.23 177.61L253.55 176.62" stroke="#42A0F0" stroke-linecap="round"/><path d="M267.39 179.32L254.26 171.74" stroke="#42A0F0" stroke-linecap="round"/><path d="M264.20 177.44L265.23 181.05" stroke="#42A0F0" stroke-linecap="round"/><path d="M264.20 177.44L267.88 176.46" stroke="#42A0F0" stroke-linecap="round"/><path d="M257.19 173.40L253.55 174.31" stroke="#42A0F0" stroke-linecap="round"/><path d="M257.19 173.40L256.20 169.72" stroke="#42A0F0" stroke-linecap="round"/><path d="M251.59 279.44V291.89" stroke="#42A0F0" stroke-linecap="round"/><path d="M250.95 282.16L253.10 281.44" stroke="#42A0F0" stroke-linecap="round"/><path d="M250.95 282.16L248.07 281.44" stroke="#42A0F0" stroke-linecap="round"/><path d="M250.95 289.36L253.10 290.80" stroke="#42A0F0" stroke-linecap="round"/><path d="M250.95 289.36L248.07 290.80" stroke="#42A0F0" stroke-linecap="round"/><path d="M256.95 282.60L246.17 288.83" stroke="#42A0F0" stroke-linecap="round"/><path d="M254.31 284.11L257.30 284.86" stroke="#42A0F0" stroke-linecap="round"/><path d="M254.31 284.10L255.12 281.08" stroke="#42A0F0" stroke-linecap="round"/><path d="M248.55 287.43L247.71 290.39" stroke="#42A0F0" stroke-linecap="round"/><path d="M248.55 287.43L245.53 286.61" stroke="#42A0F0" stroke-linecap="round"/><path d="M256.89 288.83L246.11 282.60" stroke="#42A0F0" stroke-linecap="round"/><path d="M254.27 287.29L255.11 290.25" stroke="#42A0F0" stroke-linecap="round"/><path d="M254.27 287.29L257.29 286.48" stroke="#42A0F0" stroke-linecap="round"/><path d="M248.52 283.97L245.53 284.72" stroke="#42A0F0" stroke-linecap="round"/><path d="M248.52 283.97L247.71 280.94" stroke="#42A0F0" stroke-linecap="round"/><path d="M149.33 308.23V319.20" stroke="#42A0F0" stroke-linecap="round"/><path d="M148.75 310.95L150.91 310.23" stroke="#42A0F0" stroke-linecap="round"/><path d="M148.75 310.95L146.59 310.23" stroke="#42A0F0" stroke-linecap="round"/><path d="M148.75 316.70L150.91 318.14" stroke="#42A0F0" stroke-linecap="round"/><path d="M148.75 316.70L146.59 318.14" stroke="#42A0F0" stroke-linecap="round"/><path d="M154.06 311.01L144.56 316.5" stroke="#42A0F0" stroke-linecap="round"/><path d="M151.72 312.34L154.36 313.00" stroke="#42A0F0" stroke-linecap="round"/><path d="M151.72 312.34L152.44 309.67" stroke="#42A0F0" stroke-linecap="round"/><path d="M146.66 315.26L145.91 317.87" stroke="#42A0F0" stroke-linecap="round"/><path d="M146.66 315.26L143.99 314.55" stroke="#42A0F0" stroke-linecap="round"/><path d="M154.00 316.50L144.50 311.01" stroke="#42A0F0" stroke-linecap="round"/><path d="M151.69 315.14L152.44 317.75" stroke="#42A0F0" stroke-linecap="round"/><path d="M151.69 315.14L154.36 314.43" stroke="#42A0F0" stroke-linecap="round"/><path d="M146.63 312.21L143.99 312.88" stroke="#42A0F0" stroke-linecap="round"/><path d="M146.63 312.21L145.91 309.55" stroke="#42A0F0" stroke-linecap="round"/><path d="M107.94 262.17V271.06" stroke="#42A0F0" stroke-linecap="round"/><path d="M107.73 264.17L109.17 263.45" stroke="#42A0F0" stroke-linecap="round"/><path d="M107.72 264.17L105.57 263.45" stroke="#42A0F0" stroke-linecap="round"/><path d="M107.73 269.20L109.17 269.93" stroke="#42A0F0" stroke-linecap="round"/><path d="M107.72 269.20L105.57 269.93" stroke="#42A0F0" stroke-linecap="round"/><path d="M111.77 264.43L104.07 268.88" stroke="#42A0F0" stroke-linecap="round"/><path d="M109.88 265.50L112.02 266.04" stroke="#42A0F0" stroke-linecap="round"/><path d="M109.88 265.50L110.46 263.34" stroke="#42A0F0" stroke-linecap="round"/><path d="M105.77 267.87L105.17 269.99" stroke="#42A0F0" stroke-linecap="round"/><path d="M105.77 267.87L103.61 267.29" stroke="#42A0F0" stroke-linecap="round"/><path d="M111.73 268.88L104.03 264.43" stroke="#42A0F0" stroke-linecap="round"/><path d="M109.86 267.77L110.46 269.89" stroke="#42A0F0" stroke-linecap="round"/><path d="M109.86 267.77L112.02 267.19" stroke="#42A0F0" stroke-linecap="round"/><path d="M105.75 265.4L103.61 265.94" stroke="#42A0F0" stroke-linecap="round"/><path d="M105.75 265.4L105.17 263.24" stroke="#42A0F0" stroke-linecap="round"/><g filter="url(#filter1_df_7_1847)"><g filter="url(#filter2_d_7_1847)"><path d="M235.56 233.76C233.63 233.92 231.68 234.00 229.71 234H92.18C82.71 234.03 73.33 232.20 64.58 228.60C55.82 225.00 47.86 219.71 41.16 213.03C34.45 206.35 29.13 198.41 25.50 189.67C21.87 180.93 20 171.55 20 162.09C20 152.62 21.87 143.25 25.50 134.51C29.13 125.76 34.45 117.82 41.16 111.14C47.86 104.46 55.82 99.17 64.58 95.57C73.33 91.97 82.71 90.14 92.18 90.17H143.46C160.08 53.6 198.37 28 242.94 28C302.77 28 351.27 74.11 351.27 131C351.27 187.88 302.77 234 242.94 234C240.46 234 238.00 233.92 235.56 233.76Z" fill="url(#paint0_linear_7_1847)"/><path d="M242.94 233C250.23 233 257.51 232.30 264.58 230.93C271.48 229.59 278.25 227.58 284.73 224.98C291.10 222.42 297.23 219.25 302.97 215.57C308.65 211.92 314.00 207.72 318.85 203.11C323.71 198.49 328.12 193.41 331.95 188.01C335.83 182.56 339.15 176.73 341.84 170.69C344.58 164.53 346.68 158.09 348.09 151.55C349.54 144.83 350.27 137.92 350.27 131C350.27 124.08 349.54 117.17 348.09 110.45C346.68 103.91 344.58 97.47 341.84 91.31C339.15 85.27 335.83 79.44 331.95 73.99C328.12 68.59 323.71 63.51 318.85 58.89C314.00 54.28 308.65 50.08 302.97 46.43C297.23 42.75 291.10 39.58 284.73 37.02C278.25 34.42 271.48 32.42 264.58 31.07C257.51 29.70 250.23 29 242.94 29C221.57 29 200.93 34.95 183.25 46.21C174.73 51.64 167.08 58.19 160.50 65.69C153.88 73.23 148.45 81.61 144.37 90.59L144.10 91.17H143.46H92.18C82.61 91.17 73.32 93.05 64.58 96.75C60.38 98.52 56.33 100.72 52.53 103.28C48.78 105.82 45.25 108.73 42.04 111.94C38.83 115.15 35.92 118.69 33.38 122.44C30.82 126.23 28.62 130.28 26.84 134.49C23.14 143.23 21.27 152.51 21.27 162.09C21.27 171.66 23.14 180.95 26.84 189.69C28.62 193.89 30.82 197.94 33.38 201.74C35.92 205.49 38.83 209.02 42.04 212.23C45.25 215.44 48.78 218.35 52.53 220.89C56.33 223.45 60.38 225.65 64.58 227.43C73.32 231.12 82.61 233 92.18 233H229.71C231.63 233 233.57 232.92 235.48 232.77L235.56 232.76L235.63 232.77C238.05 232.92 240.51 233 242.94 233ZM242.94 234C240.46 234 238.00 233.92 235.56 233.76C233.63 233.92 231.68 234 229.71 234H92.18C52.47 234 20.27 201.80 20.27 162.09C20.27 122.37 52.47 90.17 92.18 90.17H143.46C160.08 53.60 198.37 28 242.94 28C302.77 28 351.27 74.12 351.27 131C351.27 187.88 302.77 234 242.94 234Z" fill="white" fill-opacity="0.5"/></g></g><defs><filter id="filter0_f_7_1847" x="114.37" y="165.20" width="140.40" height="147.55" filterUnits="userSpaceOnUse" color-interpolation-filters="sRGB"><feFlood flood-opacity="0" result="BackgroundImageFix"/><feBlend mode="normal" in="SourceGraphic" in2="BackgroundImageFix" result="shape"/><feGaussianBlur stdDeviation="2" result="effect1_foregroundBlur_7_1847"/></filter><filter id="filter1_df_7_1847" x="0" y="0" width="391.27" height="266" filterUnits="userSpaceOnUse" color-interpolation-filters="sRGB"><feFlood flood-opacity="0" result="BackgroundImageFix"/><feColorMatrix in="SourceAlpha" type="matrix" values="0 0 0 0 0 0 0 0 0 0 0 0 0 0 0 0 0 0 127 0" result="hardAlpha"/><feOffset dx="10" dy="2"/><feGaussianBlur stdDeviation="15"/><feColorMatrix type="matrix" values="0 0 0 0 0.26 0 0 0 0 0.63 0 0 0 0 0.94 0 0 0 0.60 0"/><feBlend mode="normal" in2="BackgroundImageFix" result="effect1_dropShadow_7_1847"/><feBlend mode="normal" in="SourceGraphic" in2="effect1_dropShadow_7_1847" result="shape"/><feGaussianBlur stdDeviation="2" result="effect2_foregroundBlur_7_1847"/></filter><filter id="filter2_d_7_1847" x="0" y="0" width="391.27" height="266" filterUnits="userSpaceOnUse" color-interpolation-filters="sRGB"><feFlood flood-opacity="0" result="BackgroundImageFix"/><feColorMatrix in="SourceAlpha" type="matrix" values="0 0 0 0 0 0 0 0 0 0 0 0 0 0 0 0 0 0 127 0" result="hardAlpha"/><feOffset dx="10" dy="2"/><feGaussianBlur stdDeviation="15"/><feColorMatrix type="matrix" values="0 0 0 0 0.50 0 0 0 0 0.50 0 0 0 0 0.50 0 0 0 0.30 0"/><feBlend mode="normal" in2="BackgroundImageFix" result="effect1_dropShadow_7_1847"/><feBlend mode="normal" in="SourceGraphic" in2="effect1_dropShadow_7_1847" result="shape"/></filter><linearGradient id="paint0_linear_7_1847" x1="154.16" y1="53.96" x2="220.21" y2="245.17" gradientUnits="userSpaceOnUse"><stop stop-color="white" stop-opacity="0.60"/><stop offset="1" stop-color="#F7F7F7" stop-opacity="0.20"/></linearGradient></defs></svg>