<svg viewBox="-7.83 -7.83 407.00 357.39" fill="none" xmlns="http://www.w3.org/2000/svg"><g filter="url(#filter0_f_7_2020)"><path d="M134.43 158.79H206.19L164.94 219.38L213.17 220.29L111.93 340.12L136.46 248.76H91.55L134.43 158.79Z" fill="url(#paint0_linear_7_2020)"/><path d="M245.31 222.56H276.82L258.71 249.16L279.89 249.56L235.44 302.17L246.21 262.06H226.49L245.31 222.56Z" fill="url(#paint1_linear_7_2020)"/></g><g filter="url(#filter1_df_7_2020)"><g filter="url(#filter2_d_7_2020)"><path d="M235.56 233.76C233.63 233.92 231.68 234.00 229.71 234H92.18C82.71 234.03 73.33 232.20 64.58 228.60C55.82 225.00 47.86 219.71 41.16 213.03C34.45 206.35 29.13 198.41 25.50 189.67C21.87 180.93 20 171.55 20 162.09C20 152.62 21.87 143.25 25.50 134.51C29.13 125.76 34.45 117.82 41.16 111.14C47.86 104.46 55.82 99.17 64.58 95.57C73.33 91.97 82.71 90.14 92.18 90.17H143.46C160.08 53.6 198.37 28 242.94 28C302.77 28 351.27 74.11 351.27 131C351.27 187.88 302.77 234 242.94 234C240.46 234 238.00 233.92 235.56 233.76Z" fill="url(#paint2_linear_7_2020)"/><path d="M242.94 233C250.23 233 257.51 232.30 264.58 230.93C271.48 229.59 278.25 227.58 284.73 224.98C291.10 222.42 297.23 219.25 302.97 215.57C308.65 211.92 314.00 207.72 318.85 203.11C323.71 198.49 328.12 193.41 331.95 188.01C335.83 182.56 339.15 176.73 341.84 170.69C344.58 164.53 346.68 158.09 348.09 151.55C349.54 144.83 350.27 137.92 350.27 131C350.27 124.08 349.54 117.17 348.09 110.45C346.68 103.91 344.58 97.47 341.84 91.31C339.15 85.27 335.83 79.44 331.95 73.99C328.12 68.59 323.71 63.51 318.85 58.89C314.00 54.28 308.65 50.08 302.97 46.43C297.23 42.75 291.10 39.58 284.73 37.02C278.25 34.42 271.48 32.42 264.58 31.07C257.51 29.70 250.23 29 242.94 29C221.57 29 200.93 34.95 183.25 46.21C174.73 51.64 167.08 58.19 160.50 65.69C153.88 73.23 148.45 81.61 144.37 90.59L144.10 91.17H143.46H92.18C82.61 91.17 73.32 93.05 64.58 96.75C60.38 98.52 56.33 100.72 52.53 103.28C48.78 105.82 45.25 108.73 42.04 111.94C38.83 115.15 35.92 118.69 33.38 122.44C30.82 126.23 28.62 130.28 26.84 134.49C23.14 143.23 21.27 152.51 21.27 162.09C21.27 171.66 23.14 180.95 26.84 189.69C28.62 193.89 30.82 197.94 33.38 201.74C35.92 205.49 38.83 209.02 42.04 212.23C45.25 215.44 48.78 218.35 52.53 220.89C56.33 223.45 60.38 225.65 64.58 227.43C73.32 231.12 82.61 233 92.18 233H229.71C231.63 233 233.57 232.92 235.48 232.77L235.56 232.76L235.63 232.77C238.05 232.92 240.51 233 242.94 233ZM242.94 234C240.46 234 238.00 233.92 235.56 233.76C233.63 233.92 231.68 234 229.71 234H92.18C52.47 234 20.27 201.80 20.27 162.09C20.27 122.37 52.47 90.17 92.18 90.17H143.46C160.08 53.60 198.37 28 242.94 28C302.77 28 351.27 74.12 351.27 131C351.27 187.88 302.77 234 242.94 234Z" fill="white" fill-opacity="0.5"/></g></g><defs><filter id="filter0_f_7_2020" x="87.55" y="154.79" width="196.34" height="189.32" filterUnits="userSpaceOnUse" color-interpolation-filters="sRGB"><feFlood flood-opacity="0" result="BackgroundImageFix"/><feBlend mode="normal" in="SourceGraphic" in2="BackgroundImageFix" result="shape"/><feGaussianBlur stdDeviation="2" result="effect1_foregroundBlur_7_2020"/></filter><filter id="filter1_df_7_2020" x="0" y="0" width="391.27" height="266" filterUnits="userSpaceOnUse" color-interpolation-filters="sRGB"><feFlood flood-opacity="0" result="BackgroundImageFix"/><feColorMatrix in="SourceAlpha" type="matrix" values="0 0 0 0 0 0 0 0 0 0 0 0 0 0 0 0 0 0 127 0" result="hardAlpha"/><feOffset dx="10" dy="2"/><feGaussianBlur stdDeviation="15"/><feColorMatrix type="matrix" values="0 0 0 0 0.26 0 0 0 0 0.63 0 0 0 0 0.94 0 0 0 0.60 0"/><feBlend mode="normal" in2="BackgroundImageFix" result="effect1_dropShadow_7_2020"/><feBlend mode="normal" in="SourceGraphic" in2="effect1_dropShadow_7_2020" result="shape"/><feGaussianBlur stdDeviation="2" result="effect2_foregroundBlur_7_2020"/></filter><filter id="filter2_d_7_2020" x="0" y="0" width="391.27" height="266" filterUnits="userSpaceOnUse" color-interpolation-filters="sRGB"><feFlood flood-opacity="0" result="BackgroundImageFix"/><feColorMatrix in="SourceAlpha" type="matrix" values="0 0 0 0 0 0 0 0 0 0 0 0 0 0 0 0 0 0 127 0" result="hardAlpha"/><feOffset dx="10" dy="2"/><feGaussianBlur stdDeviation="15"/><feColorMatrix type="matrix" values="0 0 0 0 0.50 0 0 0 0 0.50 0 0 0 0 0.50 0 0 0 0.30 0"/><feBlend mode="normal" in2="BackgroundImageFix" result="effect1_dropShadow_7_2020"/><feBlend mode="normal" in="SourceGraphic" in2="effect1_dropShadow_7_2020" result="shape"/></filter><linearGradient id="paint0_linear_7_2020" x1="141.17" y1="249.46" x2="84.36" y2="228.63" gradientUnits="userSpaceOnUse"><stop stop-color="#FFD100"/><stop offset="1" stop-color="#FFF0AA"/></linearGradient><linearGradient id="paint1_linear_7_2020" x1="248.28" y1="262.36" x2="223.33" y2="253.22" gradientUnits="userSpaceOnUse"><stop stop-color="#FFD100"/><stop offset="1" stop-color="#FFF0AA"/></linearGradient><linearGradient id="paint2_linear_7_2020" x1="154.16" y1="53.96" x2="220.21" y2="245.17" gradientUnits="userSpaceOnUse"><stop stop-color="white" stop-opacity="0.60"/><stop offset="1" stop-color="#F7F7F7" stop-opacity="0.20"/></linearGradient></defs></svg>